Coordinates
version=1
nRows=17
nColumns=24
inDegrees=yes

Units are S.I. units (second, meters, Newtons, ...)
Angles are in degrees.

endheader
time	pelvis_tilt	pelvis_list	pelvis_rotation	pelvis_tx	pelvis_ty	pelvis_tz	hip_flexion_r	hip_adduction_r	hip_rotation_r	knee_angle_r	ankle_angle_r	subtalar_angle_r	mtp_angle_r	hip_flexion_l	hip_adduction_l	hip_rotation_l	knee_angle_l	ankle_angle_l	subtalar_angle_l	mtp_angle_l	lumbar_extension	lumbar_bending	lumbar_rotation
      1.29383333	     -1.58633458	      0.20026727	     -7.54502238	      0.10636478	      0.94934080	      0.30145395	    -17.75682911	      0.71962678	     -1.80294972	    -12.41431227	     14.50698339	      5.05919734	      9.50954734	     28.79428171	     -0.16784930	     -8.45744104	     -2.73768122	      4.51377550	     -4.05753914	     -0.02408291	      1.93658623	      3.20652024	     12.76619794
      1.29800000	     -1.57252633	      0.39916329	     -7.61937905	      0.11277501	      0.94889526	      0.30119513	    -17.89261533	      0.38990836	     -1.93366213	    -12.82478546	     14.07303701	      5.12379691	     13.35716796	     28.75174883	      0.05198129	     -8.49377329	     -3.13327936	      4.08129694	     -4.60228582	      1.40169595	      2.00454769	      2.96659443	     12.73630983
      1.30216667	     -1.74616097	      0.52771766	     -7.64334832	      0.11911048	      0.94823500	      0.30091086	    -17.80854565	      0.19560618	     -1.95907010	    -13.29840238	     13.74067254	      4.92254081	     13.44131723	     29.00696706	      0.17947773	     -8.51835264	     -3.75674777	      3.71102244	     -4.91841748	      1.42270026	      2.29820860	      2.84630767	     12.81552429
      1.30633333	     -1.81572620	      0.70563119	     -7.68491657	      0.12554638	      0.94777307	      0.30065666	    -17.82391524	     -0.07252481	     -2.00689773	    -13.78036807	     13.32537141	      4.74747210	     13.49295435	     29.12697979	      0.36087104	     -8.60050771	     -4.35721183	      3.31057663	     -5.25396283	      1.43484905	      2.49080659	      2.63063628	     12.83438568
      1.31050000	     -1.94611181	      0.87067142	     -7.70172444	      0.13195198	      0.94727294	      0.30030478	    -17.75125824	     -0.31253581	     -2.03276435	    -14.29675382	     12.89675093	      4.61898107	     13.77415855	     29.29210212	      0.55782463	     -8.41567069	     -4.92272519	      2.72283907	     -6.06497679	      1.52450468	      2.72161500	      2.47791672	     12.87591652
      1.31466667	     -2.05103261	      1.05480185	     -7.71033278	      0.13843774	      0.94685959	      0.29997391	    -17.70147371	     -0.57034283	     -2.06672139	    -14.81331295	     12.39271406	      4.44391904	     14.12508464	     29.45637079	      0.76608724	     -8.35054364	     -5.56400629	      2.16613752	     -6.66281155	      1.63743104	      2.95605992	      2.27331887	     12.88026290
      1.31883333	     -2.16074893	      1.25614278	     -7.69645083	      0.14497941	      0.94649192	      0.29962652	    -17.64647950	     -0.83162620	     -2.07626645	    -15.32159031	     11.83642177	      4.24702059	     14.41675405	     29.64466796	      0.99363770	     -8.32785693	     -6.25389641	      1.59818201	     -7.16189396	      1.72492298	      3.20934439	      2.04237828	     12.88133940
      1.32300000	     -2.21392623	      1.49024002	     -7.68522062	      0.15153941	      0.94622731	      0.29922598	    -17.59006944	     -1.15684711	     -2.19762813	    -15.93410619	     11.21895101	      4.02852317	     19.15216489	     29.76231171	      1.26803962	     -8.27532373	     -6.92622425	      1.01943994	     -7.74678260	      3.16112129	      3.38235785	      1.77311543	     12.85972962
      1.32716667	     -2.31578386	      1.68934382	     -7.65366874	      0.15811082	      0.94597620	      0.29884433	    -17.50056765	     -1.40697692	     -2.17807787	    -16.50820516	     10.56156008	      3.72233353	     19.19567586	     29.96367607	      1.49899101	     -8.23853644	     -7.68558420	      0.47248263	     -8.21018983	      3.15329355	      3.62552497	      1.54500113	     12.85614914
      1.33133333	     -2.41260925	      1.90137373	     -7.61741694	      0.16468609	      0.94578644	      0.29842253	    -17.37104288	     -1.67609183	     -2.18237906	    -17.16110479	      9.89526145	      3.41065968	     19.30681114	     30.14966665	      1.75423933	     -8.14303328	     -8.43047378	     -0.08986794	     -8.76828886	      3.15424348	      3.85268468	      1.30854665	     12.83334430
      1.33550000	     -2.49036244	      2.12655564	     -7.57125591	      0.17127251	      0.94566203	      0.29796455	    -17.23096745	     -1.96099475	     -2.19610396	    -17.86493562	      9.18759865	      3.08760450	     19.53437334	     30.31161569	      2.03472826	     -8.01400574	     -9.17158463	     -0.62473710	     -9.33255730	      3.16492390	      4.05869045	      1.05133817	     12.79635258
      1.33966667	     -2.53621313	      2.38667775	     -7.51325549	      0.17795224	      0.94563177	      0.29751271	    -17.11535305	     -2.28362172	     -2.23527388	    -18.57499707	      8.41121760	      2.79520245	     19.62084213	     30.45885927	      2.34051258	     -8.03077662	     -9.96767652	     -1.06519468	     -9.60004770	      3.16409679	      4.25202826	      0.72965390	     12.77620881
      1.34383333	     -2.63323503	      2.58428073	     -7.42843432	      0.18455540	      0.94559612	      0.29698595	    -16.92429740	     -2.51949851	     -2.21342747	    -19.31101969	      7.55523552	      2.47509365	     19.90182757	     30.65662830	      2.61211467	     -7.85026451	    -10.76121107	     -1.60801107	    -10.21230246	      3.16805919	      4.48963608	      0.51294047	     12.72071440
      1.34800000	     -2.67916872	      2.82367222	     -7.34224778	      0.19121067	      0.94566708	      0.29643807	    -16.75258846	     -2.81321167	     -2.22746512	    -20.10430633	      6.65680445	      2.15287766	     20.24020372	     30.79364011	      2.92772905	     -7.73487852	    -11.54886629	     -2.05331657	    -10.64113285	      3.16909444	      4.66847836	      0.23630926	     12.66695126
      1.35216667	     -2.65763680	      3.11548960	     -7.23781178	      0.19792442	      0.94585842	      0.29581819	    -16.62086893	     -3.18577088	     -2.34940136	    -20.93659086	      5.67488377	      1.83297012	     25.54048108	     30.83717905	      3.32484568	     -7.59123739	    -12.29443422	     -2.42388107	    -11.08336686	      3.15380978	      4.77415066	     -0.12274480	     12.60927362
      1.35633333	     -2.71832333	      3.34708878	     -7.15316186	      0.20455728	      0.94600614	      0.29525755	    -16.35669485	     -3.46893695	     -2.31815692	    -21.84735560	      4.70645866	      1.50501771	     25.57816465	     30.99776284	      3.62181508	     -7.53299002	    -13.12040933	     -2.73171129	    -11.31778996	      3.14181072	      4.97292740	     -0.38390882	     12.56588853
      1.36050000	     -2.72730571	      3.61871129	     -7.05268595	      0.21124220	      0.94625315	      0.29464820	    -16.12691509	     -3.80319385	     -2.32859689	    -22.78608711	      3.70658068	      1.18095878	     25.61986022	     31.08583519	      3.97966818	     -7.46289259	    -13.91688543	     -2.94809653	    -11.54166350	      3.12894553	      5.11722936	     -0.71364982	     12.52600993
